<svg version="1.1" xmlns="http://www.w3.org/2000/svg" viewBox="0 0 339.3333740234375 342" width="339.3333740234375" height="342">
  <!-- svg-source:excalidraw -->
  
  <defs>
    <style class="style-fonts">
      
    </style>
    
  </defs>
  <rect x="0" y="0" width="339.3333740234375" height="342" fill="#ffffff"></rect><g stroke-linecap="round" transform="translate(144.99990844726562 157.00003051757812) rotate(0 17.66668701171875 19)"><path d="M14.28 0.65 C17.81 -0.25, 23.53 0.74, 26.89 2.69 C30.24 4.64, 33.21 8.45, 34.39 12.34 C35.57 16.24, 35.25 22.12, 33.98 26.05 C32.71 29.98, 30.01 34.01, 26.8 35.94 C23.59 37.88, 18.54 38.49, 14.74 37.66 C10.94 36.83, 6.42 34.04, 4.02 30.95 C1.62 27.86, 0.35 23.11, 0.35 19.13 C0.34 15.14, 1.55 10.17, 3.97 7.04 C6.39 3.91, 13 1.44, 14.88 0.33 C16.76 -0.78, 15.11 0.07, 15.26 0.38 M18.08 0.13 C21.58 -0.02, 26.23 2.55, 28.96 5.32 C31.69 8.08, 33.81 12.83, 34.47 16.72 C35.13 20.62, 34.89 25.41, 32.94 28.68 C30.98 31.95, 26.32 35.01, 22.74 36.34 C19.17 37.66, 14.97 38.1, 11.48 36.65 C8 35.2, 3.74 31.16, 1.84 27.62 C-0.05 24.08, -0.69 19.37, 0.12 15.43 C0.92 11.5, 3.75 6.68, 6.68 4.01 C9.61 1.33, 15.78 -0.01, 17.71 -0.6 C19.64 -1.18, 18.1 0.04, 18.26 0.51" stroke="none" stroke-width="0" fill="#f08c00"></path><path d="M15.86 -0.11 C19.38 -0.69, 23.96 1.22, 27.04 3.51 C30.12 5.79, 33.22 9.72, 34.34 13.58 C35.47 17.44, 35.16 23.01, 33.78 26.66 C32.4 30.31, 29.48 33.63, 26.07 35.51 C22.66 37.38, 17.09 38.79, 13.32 37.89 C9.54 36.99, 5.59 33.37, 3.42 30.1 C1.26 26.84, 0.05 22.26, 0.31 18.28 C0.58 14.3, 2.39 9.33, 5 6.23 C7.61 3.13, 14.01 0.62, 15.97 -0.33 C17.92 -1.28, 16.69 0.12, 16.75 0.54 M21.2 0.65 C24.56 1.23, 28.68 4.87, 30.95 8.07 C33.22 11.27, 34.78 15.9, 34.82 19.83 C34.85 23.76, 33.57 28.71, 31.18 31.63 C28.8 34.54, 24.37 36.88, 20.51 37.32 C16.64 37.77, 11.22 36.32, 7.99 34.29 C4.75 32.26, 2.15 28.8, 1.12 25.14 C0.09 21.49, 0.47 16.14, 1.83 12.36 C3.18 8.57, 5.88 4.28, 9.25 2.42 C12.62 0.55, 20.12 1.4, 22.05 1.19 C23.99 0.99, 21.08 1, 20.86 1.19" stroke="#f08c00" stroke-width="4" fill="none"></path></g><g stroke-linecap="round" transform="translate(239.66659545898438 22.3333740234375) rotate(0 18.333343505859375 19.666656494140625)"><path d="M22.37 0.39 C26.12 0.98, 30.62 3.8, 32.98 7.11 C35.34 10.43, 36.73 15.94, 36.53 20.26 C36.32 24.58, 34.3 29.93, 31.74 33.06 C29.18 36.18, 24.97 38.42, 21.18 39.01 C17.38 39.59, 12.38 38.72, 8.97 36.54 C5.55 34.36, 1.93 29.91, 0.69 25.9 C-0.56 21.89, -0.01 16.47, 1.49 12.47 C2.99 8.47, 6.25 3.94, 9.69 1.92 C13.13 -0.11, 19.89 0.41, 22.11 0.32 C24.34 0.23, 23.07 1.01, 23.06 1.39" stroke="#1971c2" stroke-width="4.5" fill="none" stroke-dasharray="8 12"></path></g><g stroke-linecap="round" transform="translate(118.66668701171875 10) rotate(0 18.333343505859375 19.666656494140625)"><path d="M17.47 -0.01 C21.06 -0.58, 25.79 0.78, 28.82 3.28 C31.86 5.78, 34.75 10.91, 35.67 15 C36.59 19.1, 36.01 24.14, 34.34 27.84 C32.67 31.55, 29.14 35.5, 25.67 37.23 C22.21 38.97, 17.29 39.27, 13.55 38.25 C9.8 37.22, 5.41 34.58, 3.19 31.07 C0.97 27.56, -0.19 21.52, 0.25 17.18 C0.69 12.84, 2.99 7.87, 5.84 5.03 C8.69 2.2, 15.32 0.88, 17.33 0.17 C19.35 -0.55, 17.85 0.44, 17.94 0.74 M19.99 -0.13 C23.52 -0.11, 27.82 2.9, 30.59 5.98 C33.36 9.06, 36.18 14.15, 36.63 18.36 C37.08 22.57, 35.55 27.81, 33.27 31.23 C30.98 34.64, 26.68 37.7, 22.93 38.85 C19.17 39.99, 14.19 39.97, 10.75 38.08 C7.32 36.19, 4.1 31.46, 2.31 27.52 C0.52 23.57, -0.79 18.32, 0.01 14.42 C0.82 10.51, 3.93 6.55, 7.13 4.08 C10.33 1.61, 17.03 0.18, 19.2 -0.39 C21.36 -0.97, 20.04 0.19, 20.13 0.63" stroke="#1971c2" stroke-width="4" fill="none"></path></g><g stroke-linecap="round" transform="translate(10 75.33331298828125) rotate(0 18.333343505859375 19.666656494140625)"><path d="M18.93 -0.38 C22.59 -0.57, 27.7 1.95, 30.69 4.81 C33.68 7.66, 36.41 12.47, 36.87 16.75 C37.32 21.03, 35.59 26.89, 33.42 30.51 C31.25 34.13, 27.52 37.19, 23.84 38.46 C20.17 39.72, 15 39.79, 11.38 38.09 C7.75 36.4, 4 32.12, 2.1 28.29 C0.2 24.46, -0.86 19.11, 0 15.09 C0.85 11.07, 3.83 6.7, 7.23 4.16 C10.62 1.62, 18.18 0.51, 20.35 -0.13 C22.52 -0.77, 20.32 -0.08, 20.24 0.3 M20.38 -0.6 C24.32 -0.52, 29.37 2.84, 32.16 5.89 C34.96 8.94, 37.02 13.57, 37.16 17.72 C37.3 21.86, 35.33 27.13, 33.01 30.76 C30.68 34.39, 27.12 38.29, 23.2 39.48 C19.28 40.67, 13.11 39.87, 9.5 37.91 C5.9 35.96, 2.92 31.62, 1.58 27.76 C0.24 23.9, 0.47 18.72, 1.47 14.75 C2.47 10.79, 4.54 6.5, 7.59 3.97 C10.64 1.44, 17.61 0.19, 19.77 -0.41 C21.92 -1, 20.51 -0.14, 20.51 0.39" stroke="#1971c2" stroke-width="4" fill="none"></path></g><g stroke-linecap="round" transform="translate(19.33331298828125 210.66668701171875) rotate(0 18.333343505859375 19.666656494140625)"><path d="M16.77 -0.28 C20.58 -0.8, 26.2 1.4, 29.43 3.99 C32.67 6.59, 35.23 11.19, 36.16 15.28 C37.1 19.38, 36.85 24.9, 35.03 28.56 C33.21 32.22, 28.96 35.6, 25.27 37.25 C21.58 38.9, 16.58 39.54, 12.9 38.47 C9.22 37.4, 5.37 34.42, 3.2 30.84 C1.04 27.25, -0.47 21.18, -0.09 16.94 C0.29 12.7, 2.5 8.18, 5.48 5.39 C8.45 2.61, 15.74 1.02, 17.75 0.24 C19.76 -0.54, 17.56 0.51, 17.55 0.72 M21.03 0.25 C24.68 0.75, 29.23 4.59, 31.95 7.75 C34.68 10.91, 37.22 15.08, 37.37 19.21 C37.52 23.34, 35.5 29.1, 32.86 32.53 C30.22 35.96, 25.38 39.23, 21.51 39.8 C17.63 40.38, 12.9 38.36, 9.6 35.99 C6.3 33.62, 3.2 29.42, 1.71 25.57 C0.22 21.72, -0.6 16.81, 0.66 12.9 C1.91 9, 5.61 4.25, 9.24 2.13 C12.87 0, 20.35 0.32, 22.46 0.16 C24.57 0, 22.04 0.81, 21.91 1.15" stroke="#1971c2" stroke-width="4" fill="none"></path></g><g stroke-linecap="round" transform="translate(115.33331298828125 292.66668701171875) rotate(0 18.333343505859375 19.666656494140625)"><path d="M20.04 0.37 C23.77 0.4, 28.65 2.48, 31.33 5.37 C34.02 8.25, 35.79 13.41, 36.13 17.69 C36.46 21.97, 35.45 27.61, 33.35 31.06 C31.24 34.52, 27.35 37.4, 23.49 38.43 C19.63 39.47, 13.8 38.97, 10.18 37.26 C6.56 35.55, 3.32 32.02, 1.76 28.18 C0.21 24.34, -0.22 18.3, 0.83 14.2 C1.88 10.11, 4.93 5.9, 8.08 3.61 C11.24 1.32, 17.71 0.93, 19.77 0.48 C21.83 0.03, 20.48 0.64, 20.45 0.9" stroke="#1971c2" stroke-width="4.5" fill="none" stroke-dasharray="8 12"></path></g><g stroke-linecap="round" transform="translate(252.66668701171875 280.66668701171875) rotate(0 18.333343505859375 19.666656494140625)"><path d="M18.91 -0.02 C22.73 0.03, 27.97 2.72, 30.87 5.49 C33.77 8.26, 35.85 12.48, 36.29 16.6 C36.74 20.73, 35.6 26.55, 33.55 30.22 C31.5 33.9, 27.79 37.31, 24.01 38.64 C20.24 39.96, 14.56 39.89, 10.91 38.17 C7.25 36.44, 3.78 32.11, 2.1 28.3 C0.41 24.49, -0.1 19.42, 0.8 15.31 C1.7 11.19, 4.28 6.21, 7.5 3.62 C10.72 1.02, 17.79 0.14, 20.13 -0.28 C22.48 -0.69, 21.68 0.65, 21.59 1.11 M19.24 -0.59 C23.05 -1, 28.23 1.31, 31.01 4.19 C33.79 7.08, 35.42 12.53, 35.91 16.73 C36.4 20.92, 35.76 25.81, 33.95 29.37 C32.15 32.92, 28.72 36.55, 25.07 38.06 C21.42 39.58, 15.8 39.95, 12.04 38.46 C8.29 36.98, 4.41 33.01, 2.56 29.17 C0.7 25.32, 0.14 19.6, 0.9 15.39 C1.67 11.19, 4.19 6.59, 7.12 3.95 C10.05 1.31, 16.52 0.07, 18.47 -0.46 C20.43 -1, 18.92 0.21, 18.85 0.73" stroke="#1971c2" stroke-width="4" fill="none"></path></g><g stroke-linecap="round" transform="translate(292.66668701171875 148.66668701171875) rotate(0 18.333343505859375 19.666656494140625)"><path d="M19.48 -0.19 C23.16 -0.03, 28.43 2.95, 31.32 5.9 C34.21 8.85, 36.43 13.34, 36.82 17.52 C37.21 21.7, 36.04 27.38, 33.66 30.97 C31.29 34.55, 26.46 37.89, 22.59 39.04 C18.72 40.18, 14 39.69, 10.44 37.84 C6.88 35.98, 2.94 31.73, 1.24 27.91 C-0.45 24.09, -0.92 19.07, 0.25 14.93 C1.43 10.79, 4.84 5.55, 8.29 3.09 C11.74 0.63, 18.8 0.5, 20.96 0.17 C23.11 -0.16, 21.25 0.85, 21.22 1.1 M22.63 0.38 C26.35 1.25, 30.27 5.13, 32.58 8.55 C34.88 11.97, 36.53 16.8, 36.46 20.92 C36.39 25.05, 34.83 30.16, 32.17 33.3 C29.51 36.44, 24.57 39.22, 20.51 39.76 C16.45 40.3, 11.16 38.94, 7.79 36.53 C4.43 34.12, 1.48 29.34, 0.34 25.3 C-0.79 21.25, -0.68 16.19, 0.99 12.24 C2.65 8.3, 6.64 3.66, 10.33 1.63 C14.01 -0.4, 21.09 0.28, 23.08 0.07 C25.07 -0.15, 22.36 0.07, 22.26 0.34" stroke="#1971c2" stroke-width="4" fill="none"></path></g><g stroke-linecap="round"><g transform="translate(141.76646171490688 167.24529310915398) rotate(0 -46.03403831223028 -28.099954740808613)"><path d="M0.74 -1.17 C-7.36 -3.09, -33.22 -3.07, -48.76 -12.42 C-64.3 -21.77, -85.22 -49.93, -92.49 -57.26 M-0.33 0.83 C-8.58 -1.32, -34.18 -4.38, -49.7 -13.93 C-65.23 -23.49, -86.38 -49.59, -93.48 -56.5" stroke="#f08c00" stroke-width="4" fill="none"></path></g><g transform="translate(141.76646171490688 167.24529310915398) rotate(0 -46.03403831223028 -28.099954740808613)"><path d="M-71.25 -45.06 C-79.49 -48.19, -81.99 -52.2, -93.48 -56.5 M-71.25 -45.06 C-75.94 -48.16, -81.13 -49.44, -93.48 -56.5" stroke="#f08c00" stroke-width="4" fill="none"></path></g><g transform="translate(141.76646171490688 167.24529310915398) rotate(0 -46.03403831223028 -28.099954740808613)"><path d="M-83.81 -33.45 C-88.36 -39.99, -87.26 -47.32, -93.48 -56.5 M-83.81 -33.45 C-85.81 -38.98, -88.34 -42.72, -93.48 -56.5" stroke="#f08c00" stroke-width="4" fill="none"></path></g></g><mask></mask><g stroke-linecap="round"><g transform="translate(163.79220936207741 154.03084382655118) rotate(0 -11.322216546647098 -50.88207493576857)"><path d="M-1.2 0.06 C-5.19 -17.13, -20.25 -85.7, -23.74 -102.59 M0.38 -0.96 C-3.28 -18.05, -17.77 -84.42, -21.61 -101.49" stroke="#f08c00" stroke-width="4" fill="none"></path></g><g transform="translate(163.79220936207741 154.03084382655118) rotate(0 -11.322216546647098 -50.88207493576857)"><path d="M-8.19 -80.39 C-12.47 -89.1, -18.24 -93.16, -21.61 -101.49 M-8.19 -80.39 C-12.57 -88.26, -17 -94.11, -21.61 -101.49" stroke="#f08c00" stroke-width="4" fill="none"></path></g><g transform="translate(163.79220936207741 154.03084382655118) rotate(0 -11.322216546647098 -50.88207493576857)"><path d="M-24.89 -76.7 C-23.85 -86.43, -24.28 -91.66, -21.61 -101.49 M-24.89 -76.7 C-23.57 -85.93, -22.33 -93.04, -21.61 -101.49" stroke="#f08c00" stroke-width="4" fill="none"></path></g></g><mask></mask><g stroke-linecap="round"><g transform="translate(141.66665649414062 183) rotate(0 -43.33331298828125 20.333328247070312)"><path d="M0.48 1.15 C-13.87 7.96, -72.37 33.19, -86.79 39.92 M-0.73 0.7 C-15.18 7.74, -73.5 34.57, -87.8 41.07" stroke="#f08c00" stroke-width="4" fill="none"></path></g><g transform="translate(141.66665649414062 183) rotate(0 -43.33331298828125 20.333328247070312)"><path d="M-70.01 23.51 C-72.48 27.56, -79.87 32.94, -87.8 41.07 M-70.01 23.51 C-76.07 30.15, -83.11 36.28, -87.8 41.07" stroke="#f08c00" stroke-width="4" fill="none"></path></g><g transform="translate(141.66665649414062 183) rotate(0 -43.33331298828125 20.333328247070312)"><path d="M-62.89 39.06 C-66.93 39.43, -76.02 41.1, -87.8 41.07 M-62.89 39.06 C-71.67 39.91, -81.39 40.19, -87.8 41.07" stroke="#f08c00" stroke-width="4" fill="none"></path></g></g><mask></mask><g stroke-linecap="round"><g transform="translate(161.66665649414062 200.33334350585938) rotate(0 -11.666656494140625 47)"><path d="M0.78 -1.17 C-2.89 14.56, -18.92 79.25, -22.86 95.09 M-0.26 0.83 C-3.98 16.19, -19.71 77.82, -23.55 93.54" stroke="#f08c00" stroke-width="4" fill="none"></path></g><g transform="translate(161.66665649414062 200.33334350585938) rotate(0 -11.666656494140625 47)"><path d="M-26.14 68.68 C-27.36 75.22, -22.98 81.06, -23.55 93.54 M-26.14 68.68 C-24.87 75.43, -25.17 84.05, -23.55 93.54" stroke="#f08c00" stroke-width="4" fill="none"></path></g><g transform="translate(161.66665649414062 200.33334350585938) rotate(0 -11.666656494140625 47)"><path d="M-9.55 72.83 C-14.64 78.52, -14.11 83.4, -23.55 93.54 M-9.55 72.83 C-13.12 78.53, -18.24 85.94, -23.55 93.54" stroke="#f08c00" stroke-width="4" fill="none"></path></g></g><mask></mask><g stroke-linecap="round"><g transform="translate(175.66665649414062 187.00003051757812) rotate(0 41.333343505859375 46.333343505859375)"><path d="M-1.03 0.33 C12.47 15.56, 68.08 76.69, 82.19 91.95 M0.63 -0.54 C13.83 14.78, 67.2 77.55, 81 93.11" stroke="#f08c00" stroke-width="4" fill="none"></path></g><g transform="translate(175.66665649414062 187.00003051757812) rotate(0 41.333343505859375 46.333343505859375)"><path d="M59.16 80.95 C68.46 85.19, 75.41 92.47, 81 93.11 M59.16 80.95 C63.74 83.91, 68.79 86.54, 81 93.11" stroke="#f08c00" stroke-width="4" fill="none"></path></g><g transform="translate(175.66665649414062 187.00003051757812) rotate(0 41.333343505859375 46.333343505859375)"><path d="M72.09 69.76 C76.29 78.34, 78.1 90.08, 81 93.11 M72.09 69.76 C73.67 75.42, 75.63 80.71, 81 93.11" stroke="#f08c00" stroke-width="4" fill="none"></path></g></g><mask></mask><g stroke-linecap="round"><g transform="translate(184.33334350585938 176.33334350585938) rotate(0 51.333343505859375 -3.333343505859375)"><path d="M0.35 -0.09 C17.54 -1.1, 86.14 -5.41, 103.23 -6.49 M-0.93 -1.18 C16.15 -1.94, 85.38 -4.19, 102.58 -4.86" stroke="#f08c00" stroke-width="4" fill="none"></path></g><g transform="translate(184.33334350585938 176.33334350585938) rotate(0 51.333343505859375 -3.333343505859375)"><path d="M79.41 4.52 C86.42 2.52, 93.98 -0.88, 102.58 -4.86 M79.41 4.52 C85.66 1.19, 94.17 -0.54, 102.58 -4.86" stroke="#f08c00" stroke-width="4" fill="none"></path></g><g transform="translate(184.33334350585938 176.33334350585938) rotate(0 51.333343505859375 -3.333343505859375)"><path d="M78.8 -12.57 C85.94 -9.32, 93.69 -7.47, 102.58 -4.86 M78.8 -12.57 C85.25 -10.59, 93.94 -7.01, 102.58 -4.86" stroke="#f08c00" stroke-width="4" fill="none"></path></g></g><mask></mask><g stroke-linecap="round"><g transform="translate(171.66665649414062 156.33334350585938) rotate(0 35.66717801150037 -50.000688317058234)"><path d="M0.84 1.1 C12.66 -15.38, 58.94 -82.37, 70.6 -99.24 M-0.19 0.63 C12.05 -16.16, 61.27 -84.38, 72.93 -100.96" stroke="#f08c00" stroke-width="4" fill="none"></path></g><g transform="translate(171.66665649414062 156.33334350585938) rotate(0 35.66717801150037 -50.000688317058234)"><path d="M66.24 -76.87 C69.96 -84.71, 71.23 -90.91, 72.93 -100.96 M66.24 -76.87 C68.5 -83.65, 71.02 -89.95, 72.93 -100.96" stroke="#f08c00" stroke-width="4" fill="none"></path></g><g transform="translate(171.66665649414062 156.33334350585938) rotate(0 35.66717801150037 -50.000688317058234)"><path d="M52.32 -86.81 C59.81 -92.03, 64.87 -95.53, 72.93 -100.96 M52.32 -86.81 C58.61 -90.69, 65.19 -94.09, 72.93 -100.96" stroke="#f08c00" stroke-width="4" fill="none"></path></g></g><mask></mask><g stroke-linecap="round"><g transform="translate(51.666717529296875 97) rotate(0 50.999969482421875 30.666671752929688)"><path d="M0.56 0.46 C10.1 2.65, 39.37 3.99, 56.38 13.96 C73.4 23.92, 95 52.45, 102.67 60.26 M-0.6 -0.34 C8.89 1.42, 38.5 1.94, 55.64 12.16 C72.78 22.39, 94.38 52.76, 102.25 61.01" stroke="#1971c2" stroke-width="4" fill="none"></path></g><g transform="translate(51.666717529296875 97) rotate(0 50.999969482421875 30.666671752929688)"><path d="M80.59 48.53 C86.43 51.93, 91.67 55.27, 102.25 61.01 M80.59 48.53 C84.44 51.66, 88.84 53.62, 102.25 61.01" stroke="#1971c2" stroke-width="4" fill="none"></path></g><g transform="translate(51.666717529296875 97) rotate(0 50.999969482421875 30.666671752929688)"><path d="M93.68 37.52 C96.59 43.52, 98.83 49.39, 102.25 61.01 M93.68 37.52 C94.82 42.92, 96.47 47.19, 102.25 61.01" stroke="#1971c2" stroke-width="4" fill="none"></path></g></g><mask></mask></svg>