<svg version="1.1" xmlns="http://www.w3.org/2000/svg" viewBox="0 0 538.8332595825195 179.00001525878906" width="538.8332595825195" height="179.00001525878906">
  <!-- svg-source:excalidraw -->
  
  <defs>
    <style class="style-fonts">
      
    </style>
    
  </defs>
  <rect x="0" y="0" width="538.8332595825195" height="179.00001525878906" fill="#ffffff"></rect><g stroke-linecap="round" transform="translate(10 134.33334350585938) rotate(0 16.333328247070312 16.666671752929688)"><path d="M14.96 0.52 C18.16 0.06, 23.13 1.39, 25.94 3.37 C28.74 5.35, 30.86 8.89, 31.76 12.4 C32.67 15.91, 32.91 21.09, 31.37 24.41 C29.82 27.73, 25.85 30.92, 22.49 32.34 C19.14 33.77, 14.48 34.06, 11.25 32.97 C8.03 31.87, 4.95 28.88, 3.15 25.77 C1.34 22.65, 0.13 17.78, 0.44 14.28 C0.75 10.79, 2.41 7.17, 5.02 4.8 C7.63 2.44, 14.26 0.81, 16.09 0.1 C17.92 -0.6, 16.1 0.28, 15.99 0.56 M15.7 -0.45 C19.18 -0.67, 24.4 1.3, 27.29 3.72 C30.18 6.14, 32.59 10.46, 33.06 14.08 C33.52 17.7, 31.82 22.53, 30.08 25.45 C28.34 28.37, 25.73 30.52, 22.63 31.61 C19.53 32.7, 14.78 33.01, 11.48 31.97 C8.19 30.94, 4.73 28.32, 2.86 25.39 C0.98 22.47, -0.25 18.08, 0.24 14.41 C0.73 10.73, 3.22 5.73, 5.8 3.33 C8.38 0.94, 14.07 0.44, 15.73 0.04 C17.39 -0.36, 15.77 0.68, 15.75 0.94" stroke="#1e1e1e" stroke-width="4" fill="none"></path></g><g stroke-linecap="round" transform="translate(160.33335876464844 135.6666717529297) rotate(0 16.333328247070312 16.666671752929688)"><path d="M20.36 0.39 C23.54 0.86, 26.9 3.39, 28.96 6.18 C31.01 8.96, 32.71 13.52, 32.68 17.08 C32.64 20.64, 31.12 24.86, 28.73 27.52 C26.34 30.17, 21.86 32.48, 18.32 33 C14.78 33.52, 10.41 32.56, 7.49 30.65 C4.56 28.73, 1.75 24.91, 0.78 21.49 C-0.2 18.08, 0.31 13.4, 1.64 10.15 C2.97 6.9, 5.61 3.51, 8.77 1.98 C11.93 0.45, 18.64 1.16, 20.62 0.95 C22.59 0.75, 20.66 0.49, 20.64 0.74 M16.84 0.41 C20.26 0.29, 24.36 2, 26.98 4.34 C29.59 6.67, 32.07 10.94, 32.54 14.43 C33.02 17.92, 31.56 22.33, 29.84 25.25 C28.13 28.18, 25.38 30.76, 22.25 31.95 C19.11 33.15, 14.27 33.48, 11.04 32.42 C7.8 31.36, 4.68 28.64, 2.81 25.61 C0.94 22.58, -0.7 17.78, -0.19 14.23 C0.31 10.69, 2.95 6.78, 5.84 4.35 C8.73 1.91, 15.37 0.39, 17.15 -0.38 C18.92 -1.15, 16.59 -0.72, 16.49 -0.27" stroke="#1e1e1e" stroke-width="4" fill="none"></path></g><g stroke-linecap="round" transform="translate(84.33332824707031 12.333328247070312) rotate(0 16.333328247070312 16.666671752929688)"><path d="M12.88 0.7 C16.09 -0.17, 20.74 0.36, 23.83 2.04 C26.92 3.71, 30.08 7.37, 31.4 10.73 C32.71 14.09, 32.86 18.74, 31.72 22.18 C30.59 25.62, 27.6 29.54, 24.59 31.35 C21.58 33.15, 17.07 33.65, 13.66 33.04 C10.25 32.43, 6.32 30.42, 4.11 27.68 C1.9 24.93, 0.53 20.1, 0.4 16.58 C0.28 13.05, 1.06 9.27, 3.37 6.54 C5.69 3.8, 12.44 1.21, 14.3 0.18 C16.16 -0.84, 14.51 0.07, 14.55 0.38 M17.01 -0.56 C20.3 -0.68, 24.58 1.99, 27.08 4.47 C29.59 6.96, 31.45 10.81, 32.02 14.37 C32.6 17.93, 32.13 22.92, 30.54 25.84 C28.95 28.77, 25.73 30.87, 22.51 31.92 C19.28 32.97, 14.51 33.23, 11.2 32.16 C7.89 31.09, 4.53 28.61, 2.65 25.52 C0.76 22.43, -0.56 17.22, -0.1 13.62 C0.35 10.01, 2.48 6.17, 5.36 3.88 C8.24 1.59, 15.28 0.48, 17.16 -0.12 C19.03 -0.73, 16.62 0.02, 16.61 0.26" stroke="#1e1e1e" stroke-width="4" fill="none"></path></g><g stroke-linecap="round"><g transform="translate(34 125) rotate(0 23.333328247070312 -34)"><path d="M1.01 -0.24 C8.78 -11.53, 37.88 -57.58, 45.53 -68.86 M0.08 -1.41 C8.3 -12.48, 39.95 -56.91, 47.65 -67.77" stroke="#1e1e1e" stroke-width="4" fill="none"></path></g></g><mask></mask><g stroke-linecap="round"><g transform="translate(118 55.66668701171875) rotate(0 23 33.666656494140625)"><path d="M0.27 -0.06 C7.91 11.21, 37.98 55.3, 45.46 66.66 M-1.04 -1.14 C6.41 10.37, 36.12 56.63, 44.23 67.84" stroke="#1e1e1e" stroke-width="4" fill="none"></path></g></g><mask></mask><g stroke-linecap="round"><g transform="translate(54 151.66668701171875) rotate(0 44.666656494140625 -0.333343505859375)"><path d="M0.48 0.32 C15.29 0.26, 75.41 -0.15, 90.04 -0.14 M-0.73 -0.55 C13.89 -1, 74.24 -1.85, 89.47 -1.99" stroke="#1e1e1e" stroke-width="4" fill="none"></path></g></g><mask></mask><g stroke-linecap="round" transform="translate(345.83324432373047 132.00001525878906) rotate(0 16.333328247070312 16.666671752929688)"><path d="M20.56 0.24 C23.85 0.84, 27.44 3.57, 29.38 6.49 C31.31 9.42, 32.33 14.21, 32.17 17.8 C32.01 21.39, 30.76 25.42, 28.43 28.03 C26.1 30.64, 21.73 32.98, 18.2 33.46 C14.68 33.94, 10.28 32.89, 7.28 30.91 C4.27 28.92, 1.23 25.01, 0.18 21.58 C-0.87 18.14, -0.5 13.68, 0.98 10.32 C2.46 6.95, 5.75 2.95, 9.06 1.37 C12.37 -0.21, 18.83 0.85, 20.86 0.83 C22.89 0.8, 21.3 1.06, 21.24 1.23 M14.42 0.63 C17.65 -0.15, 22.41 0.32, 25.18 2.07 C27.96 3.82, 30.1 7.57, 31.07 11.13 C32.04 14.7, 32.2 20.08, 31.02 23.48 C29.83 26.88, 26.97 29.91, 23.95 31.55 C20.94 33.18, 16.38 34.07, 12.93 33.3 C9.49 32.53, 5.45 29.81, 3.26 26.91 C1.06 24.01, -0.44 19.53, -0.24 15.9 C-0.05 12.26, 2.08 7.73, 4.43 5.1 C6.79 2.47, 12.37 0.92, 13.89 0.12 C15.41 -0.67, 13.39 0.18, 13.55 0.34" stroke="#1e1e1e" stroke-width="4" fill="none"></path></g><g stroke-linecap="round" transform="translate(496.1666030883789 133.33334350585938) rotate(0 16.333328247070312 16.666671752929688)"><path d="M14.02 -0.28 C17.17 -0.9, 21.62 0.59, 24.67 2.54 C27.72 4.49, 31.14 7.96, 32.3 11.42 C33.46 14.88, 33.01 19.86, 31.63 23.28 C30.24 26.69, 27.19 30.24, 23.98 31.91 C20.77 33.58, 15.86 34.07, 12.34 33.3 C8.83 32.53, 5 30.22, 2.92 27.27 C0.83 24.33, -0.39 19.24, -0.14 15.63 C0.11 12.02, 1.9 8.17, 4.42 5.61 C6.94 3.04, 13.12 1.19, 14.97 0.25 C16.82 -0.68, 15.6 -0.29, 15.54 0.01 M16.8 -0.36 C19.91 -0.66, 23.66 1.27, 26.18 3.77 C28.7 6.26, 31.24 11.03, 31.91 14.63 C32.59 18.23, 31.93 22.35, 30.22 25.35 C28.5 28.36, 24.95 31.53, 21.63 32.66 C18.32 33.79, 13.62 33.48, 10.32 32.13 C7.03 30.77, 3.5 27.7, 1.88 24.53 C0.26 21.36, -0.05 16.57, 0.62 13.11 C1.3 9.65, 3.35 5.97, 5.93 3.76 C8.5 1.54, 14.19 0.52, 16.06 -0.18 C17.94 -0.87, 16.99 -0.73, 17.16 -0.42" stroke="#1e1e1e" stroke-width="4" fill="none"></path></g><g stroke-linecap="round" transform="translate(420.1665725708008 10) rotate(0 16.333328247070312 16.666671752929688)"><path d="M13.72 0.07 C17.08 -0.56, 22.4 0.38, 25.46 2.34 C28.53 4.3, 31.1 8.32, 32.11 11.84 C33.13 15.36, 33 20.14, 31.55 23.46 C30.11 26.79, 26.66 30.14, 23.47 31.8 C20.27 33.46, 15.75 34.29, 12.38 33.42 C9.01 32.54, 5.28 29.42, 3.24 26.54 C1.2 23.67, -0.07 19.67, 0.14 16.18 C0.34 12.69, 1.99 8.35, 4.47 5.61 C6.95 2.87, 13.22 0.54, 15 -0.28 C16.78 -1.11, 15.17 0.27, 15.17 0.67 M17.99 -0.03 C21.17 0.44, 25.62 3.6, 28.03 6.35 C30.45 9.1, 32.31 12.97, 32.46 16.47 C32.61 19.96, 31.14 24.6, 28.95 27.33 C26.75 30.06, 22.73 32.23, 19.29 32.84 C15.85 33.44, 11.27 32.72, 8.3 30.95 C5.34 29.18, 2.74 25.51, 1.49 22.24 C0.25 18.97, -0.14 14.65, 0.84 11.32 C1.83 8, 4.3 4.26, 7.4 2.28 C10.5 0.3, 17.46 -0.28, 19.45 -0.57 C21.45 -0.86, 19.54 0.16, 19.37 0.56" stroke="#1e1e1e" stroke-width="4" fill="none"></path></g><g stroke-linecap="round"><g transform="translate(224.6666259765625 92.33334350585938) rotate(0 41.66668701171875 -2)"><path d="M-1.07 -0.11 C12.9 -0.83, 69.44 -3.29, 83.59 -3.94 M0.57 -1.22 C14.42 -1.76, 68.99 -2.12, 82.77 -2.37" stroke="#1e1e1e" stroke-width="4" fill="none"></path></g><g transform="translate(224.6666259765625 92.33334350585938) rotate(0 41.66668701171875 -2)"><path d="M59.38 6.46 C65.71 4.62, 72.54 2.5, 82.77 -2.37 M59.38 6.46 C67.22 3.64, 73.65 0.42, 82.77 -2.37" stroke="#1e1e1e" stroke-width="4" fill="none"></path></g><g transform="translate(224.6666259765625 92.33334350585938) rotate(0 41.66668701171875 -2)"><path d="M59.18 -10.64 C65.61 -7.69, 72.5 -5.03, 82.77 -2.37 M59.18 -10.64 C67.03 -8.34, 73.52 -6.44, 82.77 -2.37" stroke="#1e1e1e" stroke-width="4" fill="none"></path></g></g><mask></mask><g stroke-linecap="round"><g transform="translate(375.3331799181626 122.3335450119223) rotate(0 23.333410040918693 -35.33342900010177)"><path d="M-1.11 -1.12 C6.95 -12.96, 39.28 -58.38, 47.27 -69.86 M0.51 0.91 C8.55 -10.77, 39.03 -59.41, 46.64 -71.57" stroke="#1e1e1e" stroke-width="4" fill="none"></path></g><g transform="translate(375.3331799181626 122.3335450119223) rotate(0 23.333410040918693 -35.33342900010177)"><path d="M41.4 -47.12 C40.39 -51.22, 44.7 -57.11, 46.64 -71.57 M41.4 -47.12 C43.43 -55.7, 45.59 -64.01, 46.64 -71.57" stroke="#1e1e1e" stroke-width="4" fill="none"></path></g><g transform="translate(375.3331799181626 122.3335450119223) rotate(0 23.333410040918693 -35.33342900010177)"><path d="M26.91 -56.21 C29.04 -58.26, 36.4 -62.23, 46.64 -71.57 M26.91 -56.21 C34.12 -61.59, 41.41 -66.69, 46.64 -71.57" stroke="#1e1e1e" stroke-width="4" fill="none"></path></g></g><mask></mask><g stroke-linecap="round"><g transform="translate(454 45.66668701171875) rotate(0 24.000043858020547 40.33340195290111)"><path d="M-0.53 0.77 C7.26 14.43, 38.92 67.53, 47.15 80.86 M1.4 0.13 C9.53 13.49, 41.55 65.18, 49.42 78.84" stroke="#1e1e1e" stroke-width="4" fill="none"></path></g><g transform="translate(454 45.66668701171875) rotate(0 24.000043858020547 40.33340195290111)"><path d="M30 63.1 C37.64 67.04, 43.19 75.2, 49.42 78.84 M30 63.1 C35.69 67.92, 42.46 72.01, 49.42 78.84" stroke="#1e1e1e" stroke-width="4" fill="none"></path></g><g transform="translate(454 45.66668701171875) rotate(0 24.000043858020547 40.33340195290111)"><path d="M44.66 54.29 C47.31 61.12, 47.94 72.23, 49.42 78.84 M44.66 54.29 C45.94 61.77, 48.22 68.55, 49.42 78.84" stroke="#1e1e1e" stroke-width="4" fill="none"></path></g></g><mask></mask><g stroke-linecap="round"><g transform="translate(388 150.33334350585938) rotate(0 48.33331298828125 0.333343505859375)"><path d="M0.35 0.14 C16.67 0.44, 81.21 1.67, 97.22 1.73 M-0.92 -0.82 C15.35 -0.84, 80.49 -0.27, 96.57 0.17" stroke="#1e1e1e" stroke-width="4" fill="none"></path></g><g transform="translate(388 150.33334350585938) rotate(0 48.33331298828125 0.333343505859375)"><path d="M72.94 8.33 C78.9 7.21, 86.15 3.91, 96.57 0.17 M72.94 8.33 C80.58 5.22, 87.08 3.5, 96.57 0.17" stroke="#1e1e1e" stroke-width="4" fill="none"></path></g><g transform="translate(388 150.33334350585938) rotate(0 48.33331298828125 0.333343505859375)"><path d="M73.22 -8.76 C79.11 -5.75, 86.29 -4.91, 96.57 0.17 M73.22 -8.76 C80.8 -6.93, 87.22 -3.71, 96.57 0.17" stroke="#1e1e1e" stroke-width="4" fill="none"></path></g></g><mask></mask></svg>